<?xml version="1.0" ?><!DOCTYPE svg  PUBLIC '-//W3C//DTD SVG 1.1//EN'  'http://www.w3.org/Graphics/SVG/1.1/DTD/svg11.dtd'><svg enable-background="new 0 0 128 128" id="Слой_1" version="1.1" viewBox="0 0 128 128" xml:space="preserve" xmlns="http://www.w3.org/2000/svg" xmlns:xlink="http://www.w3.org/1999/xlink"><g><path d="M46.5,53C30.785,53,18,65.785,18,81.5S30.785,110,46.5,110S75,97.215,75,81.5S62.215,53,46.5,53z M46.5,108   C31.888,108,20,96.112,20,81.5S31.888,55,46.5,55S73,66.888,73,81.5S61.112,108,46.5,108z" fill="#313638"/><path d="M51.265,82.048c-0.766-0.497-1.646-0.898-2.617-1.194c-0.829-0.252-1.679-0.497-2.551-0.737   c-0.789-0.216-1.571-0.477-2.326-0.775c-0.622-0.246-1.175-0.576-1.645-0.982c-0.414-0.357-0.759-0.834-1.026-1.418   c-0.255-0.556-0.39-1.362-0.39-2.333c0-0.647,0.116-1.29,0.344-1.908c0.222-0.6,0.557-1.14,0.998-1.607   c0.443-0.471,1.027-0.86,1.735-1.157c0.731-0.305,1.61-0.459,2.612-0.459c1.006,0,1.876,0.161,2.585,0.479   c0.682,0.306,1.248,0.72,1.68,1.228c0.443,0.523,0.78,1.141,1.003,1.836c0.168,0.525,0.728,0.817,1.257,0.647   c0.526-0.168,0.815-0.731,0.647-1.257c-0.303-0.946-0.768-1.793-1.382-2.519c-0.628-0.739-1.431-1.331-2.388-1.76   c-0.709-0.318-1.516-0.518-2.403-0.604v-1.305c0-0.552-0.448-1-1-1s-1,0.448-1,1v1.304c-0.871,0.081-1.67,0.268-2.382,0.565   c-0.97,0.405-1.785,0.955-2.421,1.631c-0.625,0.663-1.102,1.432-1.417,2.286c-0.311,0.841-0.468,1.716-0.468,2.601   c0,1.274,0.193,2.34,0.572,3.167c0.388,0.846,0.905,1.552,1.536,2.097c0.64,0.554,1.386,1.001,2.219,1.33   c0.822,0.324,1.674,0.608,2.531,0.843c0.854,0.235,1.686,0.475,2.499,0.722c0.791,0.241,1.501,0.563,2.11,0.958   c0.612,0.397,1.119,0.921,1.506,1.557c0.403,0.662,0.607,1.541,0.607,2.611c0,0.762-0.113,1.496-0.334,2.18   c-0.22,0.679-0.562,1.279-1.014,1.785c-0.44,0.491-1.014,0.885-1.706,1.169c-0.688,0.282-1.518,0.426-2.466,0.426   c-0.814,0-1.588-0.114-2.299-0.34c-0.709-0.224-1.346-0.592-1.894-1.093c-0.561-0.514-1.029-1.195-1.39-2.025   c-0.221-0.507-0.811-0.739-1.316-0.518c-0.506,0.22-0.738,0.81-0.518,1.316c0.474,1.089,1.104,1.999,1.874,2.703   c0.763,0.699,1.651,1.212,2.64,1.525c0.49,0.156,1.004,0.262,1.532,0.334v1.424c0,0.552,0.448,1,1,1s1-0.448,1-1v-1.35   c0.957-0.057,1.832-0.236,2.598-0.55c0.973-0.4,1.792-0.967,2.436-1.685c0.64-0.714,1.12-1.556,1.426-2.501   c0.287-0.884,0.432-1.826,0.432-2.797c0-1.442-0.302-2.67-0.899-3.651C52.846,83.348,52.13,82.609,51.265,82.048z" fill="#313638"/><path d="M53.184,49.694c0.703,0.148,1.396,0.324,2.082,0.516C55.094,48.997,55,47.76,55,46.5   C55,31.888,66.888,20,81.5,20S108,31.888,108,46.5S96.112,73,81.5,73c-1.26,0-2.497-0.094-3.711-0.265   c0.192,0.686,0.369,1.378,0.516,2.082C79.355,74.934,80.42,75,81.5,75C97.215,75,110,62.215,110,46.5S97.215,18,81.5,18   S53,30.785,53,46.5C53,47.58,53.066,48.645,53.184,49.694z" fill="#313638"/><path d="M63.138,49.046c0,0.552,0.448,1,1,1H66c1.625,7.274,8.12,12.731,15.877,12.731   c3.614,0,7.037-1.16,9.897-3.354c0.438-0.336,0.521-0.964,0.185-1.402c-0.336-0.438-0.964-0.521-1.402-0.185   c-2.509,1.924-5.511,2.941-8.681,2.941c-6.647,0-12.231-4.572-13.814-10.731H79.68c0.552,0,1-0.448,1-1s-0.448-1-1-1H67.687   C67.632,47.538,67.6,47.023,67.6,46.5s0.032-1.038,0.087-1.546H79.68c0.552,0,1-0.448,1-1s-0.448-1-1-1H68.063   c1.583-6.16,7.167-10.731,13.814-10.731c3.128,0,6.099,0.993,8.589,2.872c0.44,0.333,1.067,0.245,1.4-0.196   c0.333-0.441,0.245-1.068-0.196-1.4c-2.84-2.143-6.227-3.275-9.793-3.275c-7.756,0-14.252,5.458-15.877,12.731h-1.862   c-0.552,0-1,0.448-1,1s0.448,1,1,1h1.54C65.63,45.463,65.6,45.978,65.6,46.5s0.03,1.037,0.078,1.546h-1.54   C63.586,48.046,63.138,48.494,63.138,49.046z" fill="#313638"/><path d="M26.094,55.089c0.004,0.009,0.011,0.015,0.015,0.023c0.012,0.023,0.029,0.043,0.043,0.065   c0.051,0.084,0.111,0.157,0.181,0.221c0.013,0.012,0.019,0.029,0.034,0.041c0.014,0.011,0.03,0.015,0.044,0.025   c0.061,0.045,0.127,0.081,0.197,0.111c0.029,0.013,0.056,0.029,0.086,0.039c0.098,0.032,0.2,0.052,0.306,0.052   c0.074,0,0.149-0.008,0.224-0.025c0.043-0.01,0.079-0.035,0.119-0.05c0.042-0.016,0.082-0.03,0.122-0.051   c0.105-0.056,0.199-0.127,0.276-0.215c0.009-0.011,0.023-0.014,0.032-0.025l7.167-8.75c0.35-0.427,0.288-1.058-0.14-1.407   c-0.426-0.349-1.058-0.288-1.407,0.14l-5.218,6.371c0.786-7.262,5.04-25.071,27.85-25.654c0.552-0.014,0.988-0.473,0.974-1.025   c-0.014-0.553-0.484-1.033-1.025-0.974c-23.4,0.597-28.535,18.729-29.66,26.833l-3.075-6.589c-0.234-0.501-0.829-0.717-1.329-0.483   c-0.5,0.233-0.717,0.829-0.483,1.329L26.094,55.089z" fill="#313638"/><path d="M104.573,70.577c-0.004-0.008-0.011-0.013-0.014-0.021c-0.017-0.035-0.045-0.063-0.067-0.096   c-0.048-0.073-0.099-0.141-0.162-0.198c-0.012-0.011-0.017-0.026-0.029-0.036c-0.023-0.019-0.052-0.024-0.076-0.04   c-0.067-0.046-0.136-0.084-0.212-0.112c-0.043-0.016-0.085-0.029-0.13-0.039c-0.074-0.016-0.148-0.022-0.225-0.021   c-0.047,0-0.092,0-0.139,0.007c-0.023,0.003-0.045-0.002-0.068,0.003c-0.056,0.012-0.102,0.042-0.154,0.063   c-0.041,0.017-0.083,0.028-0.122,0.05c-0.096,0.055-0.18,0.124-0.252,0.205c-0.009,0.01-0.021,0.014-0.029,0.024l-7.167,8.75   c-0.35,0.427-0.288,1.058,0.14,1.407c0.186,0.152,0.41,0.227,0.633,0.227c0.289,0,0.577-0.125,0.774-0.366l5.117-6.247   c-0.375,2.681-1.263,6.738-3.382,10.831c-4.826,9.319-13.42,14.265-25.543,14.7c-0.552,0.02-0.983,0.483-0.964,1.035   c0.02,0.54,0.463,0.964,0.999,0.964c0.012,0,0.024,0,0.036,0c24.065-0.864,29.53-18.949,30.769-26.935l3.123,6.691   c0.234,0.501,0.829,0.717,1.329,0.483c0.5-0.233,0.717-0.829,0.483-1.329L104.573,70.577z" fill="#313638"/></g></svg>